<svg xmlns="http://www.w3.org/2000/svg" width="1200" height="760" viewBox="0 0 1200 760">
  <rect width="1200" height="760" fill="#fff6f6"/>
  <text x="40" y="60" font-family="Arial, sans-serif" font-size="34" fill="#4e3535">Item Maintenance</text>
  <rect x="40" y="90" width="1120" height="360" rx="12" fill="#fff" stroke="#e9cfcf"/>
  <text x="70" y="135" font-family="Arial, sans-serif" font-size="22" fill="#5a3b3b">Add / Edit Item Form</text>
  <text x="70" y="170" font-family="Arial, sans-serif" font-size="16" fill="#5a3b3b">SKU#, Description, Vendor (autocomplete), Return Policy, Months before expiry</text>
  <rect x="70" y="185" width="1020" height="42" rx="8" fill="#fff" stroke="#d9bcbc"/>
  <rect x="70" y="240" width="1020" height="42" rx="8" fill="#fff" stroke="#d9bcbc"/>
  <rect x="70" y="295" width="1020" height="42" rx="8" fill="#fff" stroke="#d9bcbc"/>
  <rect x="70" y="350" width="500" height="42" rx="8" fill="#fff" stroke="#d9bcbc"/>
  <rect x="590" y="350" width="500" height="42" rx="8" fill="#fff" stroke="#d9bcbc"/>
  <rect x="70" y="402" width="150" height="40" rx="10" fill="#cc2a2a"/>
  <text x="104" y="428" font-family="Arial, sans-serif" font-size="16" fill="#fff">Save Item</text>
  <rect x="230" y="402" width="120" height="40" rx="10" fill="#fff" stroke="#d9bcbc"/>
  <text x="264" y="428" font-family="Arial, sans-serif" font-size="16" fill="#5a3b3b">Cancel</text>
  <rect x="40" y="480" width="1120" height="240" rx="12" fill="#fff" stroke="#e9cfcf"/>
  <text x="70" y="525" font-family="Arial, sans-serif" font-size="22" fill="#5a3b3b">Items Table</text>
  <text x="80" y="560" font-family="Arial, sans-serif" font-size="14" fill="#6b4e4e">Columns: SKU#, Description, Vendor, Return Policy, Actions</text>
</svg>